<?xml version="1.0" encoding="UTF-8" standalone="no"?>
<!DOCTYPE svg PUBLIC "-//W3C//DTD SVG 1.1//EN"
 "http://www.w3.org/Graphics/SVG/1.1/DTD/svg11.dtd">
<!-- Generated by graphviz version 14.1.2 (20260124.0452)
 -->
<!-- Title: dependency&#45;cruiser output Pages: 1 -->
<svg width="791pt" height="582pt"
 viewBox="0.00 0.00 791.00 582.00" xmlns="http://www.w3.org/2000/svg" xmlns:xlink="http://www.w3.org/1999/xlink">
<g id="graph0" class="graph" transform="scale(1 1) rotate(0) translate(28.8 553)">
<title>dependency&#45;cruiser output</title>
<polygon fill="#fdfdfd" stroke="none" points="-28.8,28.8 -28.8,-553 761.8,-553 761.8,28.8 -28.8,28.8"/>
<g id="clust1" class="cluster">
<title>cluster_src</title>
<path fill="#ffffff" stroke="black" stroke-width="2" d="M20,-8C20,-8 713,-8 713,-8 719,-8 725,-14 725,-20 725,-20 725,-504.2 725,-504.2 725,-510.2 719,-516.2 713,-516.2 713,-516.2 20,-516.2 20,-516.2 14,-516.2 8,-510.2 8,-504.2 8,-504.2 8,-20 8,-20 8,-14 14,-8 20,-8"/>
<text xml:space="preserve" text-anchor="middle" x="366.5" y="-498.9" font-family="Helvetica,sans-Serif" font-size="14.00">src</text>
</g>
<g id="clust2" class="cluster">
<title>cluster_src/adapter</title>
<path fill="#ffffff" stroke="black" stroke-width="2" d="M28,-285.6C28,-285.6 561,-285.6 561,-285.6 567,-285.6 573,-291.6 573,-297.6 573,-297.6 573,-337.8 573,-337.8 573,-343.8 567,-349.8 561,-349.8 561,-349.8 28,-349.8 28,-349.8 22,-349.8 16,-343.8 16,-337.8 16,-337.8 16,-297.6 16,-297.6 16,-291.6 22,-285.6 28,-285.6"/>
<text xml:space="preserve" text-anchor="middle" x="294.5" y="-332.5" font-family="Helvetica,sans-Serif" font-size="14.00">adapter</text>
</g>
<g id="clust3" class="cluster">
<title>cluster_src/application</title>
<path fill="#ffffff" stroke="black" stroke-width="2" d="M648,-285.6C648,-285.6 705,-285.6 705,-285.6 711,-285.6 717,-291.6 717,-297.6 717,-297.6 717,-337.8 717,-337.8 717,-343.8 711,-349.8 705,-349.8 705,-349.8 648,-349.8 648,-349.8 642,-349.8 636,-343.8 636,-337.8 636,-337.8 636,-297.6 636,-297.6 636,-291.6 642,-285.6 648,-285.6"/>
<text xml:space="preserve" text-anchor="middle" x="676.5" y="-332.5" font-family="Helvetica,sans-Serif" font-size="14.00">application</text>
</g>
<g id="clust4" class="cluster">
<title>cluster_src/common</title>
<path fill="#ffffff" stroke="black" stroke-width="2" d="M480,-16C480,-16 640,-16 640,-16 646,-16 652,-22 652,-28 652,-28 652,-190.4 652,-190.4 652,-196.4 646,-202.4 640,-202.4 640,-202.4 480,-202.4 480,-202.4 474,-202.4 468,-196.4 468,-190.4 468,-190.4 468,-28 468,-28 468,-22 474,-16 480,-16"/>
<text xml:space="preserve" text-anchor="middle" x="560" y="-185.1" font-family="Helvetica,sans-Serif" font-size="14.00">common</text>
</g>
<g id="clust5" class="cluster">
<title>cluster_src/common/exceptions</title>
<path fill="#ffffff" stroke="black" stroke-width="2" d="M488,-24C488,-24 632,-24 632,-24 638,-24 644,-30 644,-36 644,-36 644,-76.2 644,-76.2 644,-82.2 638,-88.2 632,-88.2 632,-88.2 488,-88.2 488,-88.2 482,-88.2 476,-82.2 476,-76.2 476,-76.2 476,-36 476,-36 476,-30 482,-24 488,-24"/>
<text xml:space="preserve" text-anchor="middle" x="560" y="-70.9" font-family="Helvetica,sans-Serif" font-size="14.00">exceptions</text>
</g>
<g id="clust6" class="cluster">
<title>cluster_src/common/util</title>
<path fill="#ffffff" stroke="black" stroke-width="2" d="M539,-107.2C539,-107.2 587,-107.2 587,-107.2 593,-107.2 599,-113.2 599,-119.2 599,-119.2 599,-159.4 599,-159.4 599,-165.4 593,-171.4 587,-171.4 587,-171.4 539,-171.4 539,-171.4 533,-171.4 527,-165.4 527,-159.4 527,-159.4 527,-119.2 527,-119.2 527,-113.2 533,-107.2 539,-107.2"/>
<text xml:space="preserve" text-anchor="middle" x="563" y="-154.1" font-family="Helvetica,sans-Serif" font-size="14.00">util</text>
</g>
<g id="clust7" class="cluster">
<title>cluster_src/domain</title>
<path fill="#ffffff" stroke="black" stroke-width="2" d="M397,-107.2C397,-107.2 445,-107.2 445,-107.2 451,-107.2 457,-113.2 457,-119.2 457,-119.2 457,-254.6 457,-254.6 457,-260.6 451,-266.6 445,-266.6 445,-266.6 397,-266.6 397,-266.6 391,-266.6 385,-260.6 385,-254.6 385,-254.6 385,-119.2 385,-119.2 385,-113.2 391,-107.2 397,-107.2"/>
<text xml:space="preserve" text-anchor="middle" x="421" y="-249.3" font-family="Helvetica,sans-Serif" font-size="14.00">domain</text>
</g>
<!-- src/adapter/api&#45;controller&#45;advice.ts -->
<g id="node1" class="node">
<title>src/adapter/api&#45;controller&#45;advice.ts</title>
<g id="a_node1"><a xlink:href="src/adapter/api-controller-advice.ts" xlink:title="api&#45;controller&#45;advice.ts">
<path fill="#e3f2fd" stroke="#1565c0" stroke-width="1.2" d="M459.6,-318.8C459.6,-318.8 352.4,-318.8 352.4,-318.8 348.2,-318.8 344,-314.6 344,-310.4 344,-310.4 344,-302 344,-302 344,-297.8 348.2,-293.6 352.4,-293.6 352.4,-293.6 459.6,-293.6 459.6,-293.6 463.8,-293.6 468,-297.8 468,-302 468,-302 468,-310.4 468,-310.4 468,-314.6 463.8,-318.8 459.6,-318.8"/>
<text xml:space="preserve" text-anchor="start" x="352" y="-301.75" font-family="Helvetica,sans-Serif" font-size="11.00" fill="#0d47a1">api&#45;controller&#45;advice.ts</text>
</a>
</g>
</g>
<!-- src/domain/member/ -->
<g id="node2" class="node">
<title>src/domain/member/</title>
<g id="a_node2"><a xlink:href="src/domain/member/" xlink:title="member">
<polygon fill="#fff3e0" stroke="#e65100" stroke-width="1.2" points="448.88,-235.6 395.93,-235.6 393.12,-232.8 393.12,-210.4 446.07,-210.4 448.88,-213.2 448.88,-235.6"/>
<polyline fill="none" stroke="#e65100" stroke-width="1.2" points="446.07,-232.8 393.12,-232.8"/>
<polyline fill="none" stroke="#e65100" stroke-width="1.2" points="446.07,-232.8 446.07,-210.4"/>
<polyline fill="none" stroke="#e65100" stroke-width="1.2" points="446.07,-232.8 448.88,-235.6"/>
<text xml:space="preserve" text-anchor="start" x="401.12" y="-218.55" font-family="Helvetica,sans-Serif" font-size="11.00" fill="#bf360c">member</text>
</a>
</g>
</g>
<!-- src/adapter/api&#45;controller&#45;advice.ts&#45;&gt;src/domain/member/ -->
<g id="edge1" class="edge">
<title>src/adapter/api&#45;controller&#45;advice.ts&#45;&gt;src/domain/member/</title>
<path fill="none" stroke="#9e9e9e" stroke-width="1.2" d="M421,-293.2C421,-293.2 421,-245 421,-245"/>
<polygon fill="#9e9e9e" stroke="#9e9e9e" stroke-width="1.2" points="423.45,-245 421,-238 418.55,-245 423.45,-245"/>
</g>
<!-- src/domain/shared/ -->
<g id="node5" class="node">
<title>src/domain/shared/</title>
<g id="a_node5"><a xlink:href="src/domain/shared/" xlink:title="shared">
<polygon fill="#fff3e0" stroke="#e65100" stroke-width="1.2" points="447,-140.4 395.8,-140.4 393,-137.6 393,-115.2 444.2,-115.2 447,-118 447,-140.4"/>
<polyline fill="none" stroke="#e65100" stroke-width="1.2" points="444.2,-137.6 393,-137.6"/>
<polyline fill="none" stroke="#e65100" stroke-width="1.2" points="444.2,-137.6 444.2,-115.2"/>
<polyline fill="none" stroke="#e65100" stroke-width="1.2" points="444.2,-137.6 447,-140.4"/>
<text xml:space="preserve" text-anchor="start" x="403.5" y="-123.35" font-family="Helvetica,sans-Serif" font-size="11.00" fill="#bf360c">shared</text>
</a>
</g>
</g>
<!-- src/domain/member/&#45;&gt;src/domain/shared/ -->
<g id="edge22" class="edge">
<title>src/domain/member/&#45;&gt;src/domain/shared/</title>
<path fill="none" stroke="#9e9e9e" stroke-width="1.2" d="M411.08,-210.16C411.08,-210.16 411.08,-149.56 411.08,-149.56"/>
<polygon fill="#9e9e9e" stroke="#9e9e9e" stroke-width="1.2" points="413.53,-149.56 411.08,-142.56 408.63,-149.56 413.53,-149.56"/>
</g>
<!-- src/common/exceptions/illegal&#45;argument.exception.ts -->
<g id="node10" class="node">
<title>src/common/exceptions/illegal&#45;argument.exception.ts</title>
<g id="a_node10"><a xlink:href="src/common/exceptions/illegal-argument.exception.ts" xlink:title="illegal&#45;argument.exception.ts">
<path fill="#ddfeff" stroke="#bbbbbb" stroke-width="1.2" d="M627.85,-57.2C627.85,-57.2 492.15,-57.2 492.15,-57.2 487.95,-57.2 483.75,-53 483.75,-48.8 483.75,-48.8 483.75,-40.4 483.75,-40.4 483.75,-36.2 487.95,-32 492.15,-32 492.15,-32 627.85,-32 627.85,-32 632.05,-32 636.25,-36.2 636.25,-40.4 636.25,-40.4 636.25,-48.8 636.25,-48.8 636.25,-53 632.05,-57.2 627.85,-57.2"/>
<text xml:space="preserve" text-anchor="start" x="491.75" y="-40.15" font-family="Helvetica,sans-Serif" font-size="11.00">illegal&#45;argument.exception.ts</text>
</a>
</g>
</g>
<!-- src/domain/member/&#45;&gt;src/common/exceptions/illegal&#45;argument.exception.ts -->
<g id="edge20" class="edge">
<title>src/domain/member/&#45;&gt;src/common/exceptions/illegal&#45;argument.exception.ts</title>
<path fill="none" stroke="#9e9e9e" stroke-width="1.2" d="M449.3,-215C472.63,-215 501.92,-215 501.92,-215 501.92,-215 501.92,-66.5 501.92,-66.5"/>
<polygon fill="#9e9e9e" stroke="#9e9e9e" stroke-width="1.2" points="504.37,-66.5 501.92,-59.5 499.47,-66.5 504.37,-66.5"/>
</g>
<!-- src/common/util/assert.ts -->
<g id="node11" class="node">
<title>src/common/util/assert.ts</title>
<g id="a_node11"><a xlink:href="src/common/util/assert.ts" xlink:title="assert.ts">
<path fill="#ddfeff" stroke="#bbbbbb" stroke-width="1.2" d="M582.85,-140.4C582.85,-140.4 543.15,-140.4 543.15,-140.4 538.95,-140.4 534.75,-136.2 534.75,-132 534.75,-132 534.75,-123.6 534.75,-123.6 534.75,-119.4 538.95,-115.2 543.15,-115.2 543.15,-115.2 582.85,-115.2 582.85,-115.2 587.05,-115.2 591.25,-119.4 591.25,-123.6 591.25,-123.6 591.25,-132 591.25,-132 591.25,-136.2 587.05,-140.4 582.85,-140.4"/>
<text xml:space="preserve" text-anchor="start" x="542.75" y="-123.35" font-family="Helvetica,sans-Serif" font-size="11.00">assert.ts</text>
</a>
</g>
</g>
<!-- src/domain/member/&#45;&gt;src/common/util/assert.ts -->
<g id="edge21" class="edge">
<title>src/domain/member/&#45;&gt;src/common/util/assert.ts</title>
<path fill="none" stroke="#9e9e9e" stroke-width="1.2" d="M449.28,-219C487.22,-219 549.88,-219 549.88,-219 549.88,-219 549.88,-149.68 549.88,-149.68"/>
<polygon fill="#9e9e9e" stroke="#9e9e9e" stroke-width="1.2" points="552.33,-149.68 549.88,-142.68 547.43,-149.68 552.33,-149.68"/>
</g>
<!-- src/adapter/integration/ -->
<g id="node3" class="node">
<title>src/adapter/integration/</title>
<g id="a_node3"><a xlink:href="src/adapter/integration/" xlink:title="integration">
<polygon fill="#e3f2fd" stroke="#1565c0" stroke-width="1.2" points="90.12,-318.8 26.68,-318.8 23.88,-316 23.88,-293.6 87.32,-293.6 90.12,-296.4 90.12,-318.8"/>
<polyline fill="none" stroke="#1565c0" stroke-width="1.2" points="87.32,-316 23.88,-316"/>
<polyline fill="none" stroke="#1565c0" stroke-width="1.2" points="87.32,-316 87.32,-293.6"/>
<polyline fill="none" stroke="#1565c0" stroke-width="1.2" points="87.32,-316 90.12,-318.8"/>
<text xml:space="preserve" text-anchor="start" x="31.88" y="-301.75" font-family="Helvetica,sans-Serif" font-size="11.00" fill="#0d47a1">integration</text>
</a>
</g>
</g>
<!-- src/application/member/ -->
<g id="node4" class="node">
<title>src/application/member/</title>
<g id="a_node4"><a xlink:href="src/application/member/" xlink:title="member">
<polygon fill="#e8f5e9" stroke="#2e7d32" stroke-width="1.2" points="708.88,-318.8 655.92,-318.8 653.12,-316 653.12,-293.6 706.08,-293.6 708.88,-296.4 708.88,-318.8"/>
<polyline fill="none" stroke="#2e7d32" stroke-width="1.2" points="706.08,-316 653.12,-316"/>
<polyline fill="none" stroke="#2e7d32" stroke-width="1.2" points="706.08,-316 706.08,-293.6"/>
<polyline fill="none" stroke="#2e7d32" stroke-width="1.2" points="706.08,-316 708.88,-318.8"/>
<text xml:space="preserve" text-anchor="start" x="661.12" y="-301.75" font-family="Helvetica,sans-Serif" font-size="11.00" fill="#1b5e20">member</text>
</a>
</g>
</g>
<!-- src/adapter/integration/&#45;&gt;src/application/member/ -->
<g id="edge2" class="edge">
<title>src/adapter/integration/&#45;&gt;src/application/member/</title>
<path fill="none" stroke="#9e9e9e" stroke-width="1.2" d="M45.96,-293.22C45.96,-275.26 45.96,-245 45.96,-245 45.96,-245 674.03,-245 674.03,-245 674.03,-245 674.03,-284.4 674.03,-284.4"/>
<polygon fill="#9e9e9e" stroke="#9e9e9e" stroke-width="1.2" points="671.58,-284.4 674.03,-291.4 676.48,-284.4 671.58,-284.4"/>
</g>
<!-- src/adapter/integration/&#45;&gt;src/domain/shared/ -->
<g id="edge3" class="edge">
<title>src/adapter/integration/&#45;&gt;src/domain/shared/</title>
<path fill="none" stroke="#9e9e9e" stroke-width="1.2" d="M68.04,-293.1C68.04,-251.32 68.04,-124 68.04,-124 68.04,-124 383.86,-124 383.86,-124"/>
<polygon fill="#9e9e9e" stroke="#9e9e9e" stroke-width="1.2" points="383.86,-126.45 390.86,-124 383.86,-121.55 383.86,-126.45"/>
</g>
<!-- src/application/member/&#45;&gt;src/domain/member/ -->
<g id="edge14" class="edge">
<title>src/application/member/&#45;&gt;src/domain/member/</title>
<path fill="none" stroke="#9e9e9e" stroke-width="1.2" d="M694.94,-293.2C694.94,-269.8 694.94,-223 694.94,-223 694.94,-223 458.1,-223 458.1,-223"/>
<polygon fill="#9e9e9e" stroke="#9e9e9e" stroke-width="1.2" points="458.1,-220.55 451.1,-223 458.1,-225.45 458.1,-220.55"/>
</g>
<!-- src/application/member/&#45;&gt;src/domain/shared/ -->
<g id="edge13" class="edge">
<title>src/application/member/&#45;&gt;src/domain/shared/</title>
<path fill="none" stroke="#9e9e9e" stroke-width="1.2" d="M701.91,-293.14C701.91,-259.95 701.91,-175 701.91,-175 701.91,-175 429.04,-175 429.04,-175 429.04,-175 429.04,-149.76 429.04,-149.76"/>
<polygon fill="#9e9e9e" stroke="#9e9e9e" stroke-width="1.2" points="431.49,-149.76 429.04,-142.76 426.59,-149.76 431.49,-149.76"/>
</g>
<!-- src/adapter/persistence/ -->
<g id="node6" class="node">
<title>src/adapter/persistence/</title>
<g id="a_node6"><a xlink:href="src/adapter/persistence/" xlink:title="persistence">
<polygon fill="#e3f2fd" stroke="#1565c0" stroke-width="1.2" points="204.38,-318.8 136.43,-318.8 133.62,-316 133.62,-293.6 201.57,-293.6 204.38,-296.4 204.38,-318.8"/>
<polyline fill="none" stroke="#1565c0" stroke-width="1.2" points="201.57,-316 133.62,-316"/>
<polyline fill="none" stroke="#1565c0" stroke-width="1.2" points="201.57,-316 201.57,-293.6"/>
<polyline fill="none" stroke="#1565c0" stroke-width="1.2" points="201.57,-316 204.38,-318.8"/>
<text xml:space="preserve" text-anchor="start" x="141.62" y="-301.75" font-family="Helvetica,sans-Serif" font-size="11.00" fill="#0d47a1">persistence</text>
</a>
</g>
</g>
<!-- src/application/member/&#45;&gt;src/adapter/persistence/ -->
<g id="edge15" class="edge">
<title>src/application/member/&#45;&gt;src/adapter/persistence/</title>
<path fill="none" stroke="#9e9e9e" stroke-width="1.2" d="M687.97,-293.01C687.97,-277.84 687.97,-255 687.97,-255 687.97,-255 147.78,-255 147.78,-255 147.78,-255 147.78,-284.2 147.78,-284.2"/>
<polygon fill="#9e9e9e" stroke="#9e9e9e" stroke-width="1.2" points="145.33,-284.2 147.78,-291.2 150.23,-284.2 145.33,-284.2"/>
</g>
<!-- src/adapter/security/ -->
<g id="node7" class="node">
<title>src/adapter/security/</title>
<g id="a_node7"><a xlink:href="src/adapter/security/" xlink:title="security">
<polygon fill="#e3f2fd" stroke="#1565c0" stroke-width="1.2" points="565,-318.8 513.8,-318.8 511,-316 511,-293.6 562.2,-293.6 565,-296.4 565,-318.8"/>
<polyline fill="none" stroke="#1565c0" stroke-width="1.2" points="562.2,-316 511,-316"/>
<polyline fill="none" stroke="#1565c0" stroke-width="1.2" points="562.2,-316 562.2,-293.6"/>
<polyline fill="none" stroke="#1565c0" stroke-width="1.2" points="562.2,-316 565,-318.8"/>
<text xml:space="preserve" text-anchor="start" x="519.62" y="-301.75" font-family="Helvetica,sans-Serif" font-size="11.00" fill="#0d47a1">security</text>
</a>
</g>
</g>
<!-- src/application/member/&#45;&gt;src/adapter/security/ -->
<g id="edge16" class="edge">
<title>src/application/member/&#45;&gt;src/adapter/security/</title>
<path fill="none" stroke="#9e9e9e" stroke-width="1.2" d="M652.75,-306C652.75,-306 574.04,-306 574.04,-306"/>
<polygon fill="#9e9e9e" stroke="#9e9e9e" stroke-width="1.2" points="574.04,-303.55 567.04,-306 574.04,-308.45 574.04,-303.55"/>
</g>
<!-- src/adapter/webapi/ -->
<g id="node8" class="node">
<title>src/adapter/webapi/</title>
<g id="a_node8"><a xlink:href="src/adapter/webapi/" xlink:title="webapi">
<polygon fill="#e3f2fd" stroke="#1565c0" stroke-width="1.2" points="301,-318.8 249.8,-318.8 247,-316 247,-293.6 298.2,-293.6 301,-296.4 301,-318.8"/>
<polyline fill="none" stroke="#1565c0" stroke-width="1.2" points="298.2,-316 247,-316"/>
<polyline fill="none" stroke="#1565c0" stroke-width="1.2" points="298.2,-316 298.2,-293.6"/>
<polyline fill="none" stroke="#1565c0" stroke-width="1.2" points="298.2,-316 301,-318.8"/>
<text xml:space="preserve" text-anchor="start" x="256.75" y="-301.75" font-family="Helvetica,sans-Serif" font-size="11.00" fill="#0d47a1">webapi</text>
</a>
</g>
</g>
<!-- src/application/member/&#45;&gt;src/adapter/webapi/ -->
<g id="edge17" class="edge">
<title>src/application/member/&#45;&gt;src/adapter/webapi/</title>
<path fill="none" stroke="#9e9e9e" stroke-width="1.2" d="M681,-293.03C681,-288.25 681,-284 681,-284 681,-284 274,-284 274,-284 274,-284 274,-284.9 274,-284.9"/>
<polygon fill="#9e9e9e" stroke="#9e9e9e" stroke-width="1.2" points="271.55,-284.21 274,-291.21 276.45,-284.21 271.55,-284.21"/>
</g>
<!-- src/application/member/&#45;&gt;src/common/exceptions/illegal&#45;argument.exception.ts -->
<g id="edge18" class="edge">
<title>src/application/member/&#45;&gt;src/common/exceptions/illegal&#45;argument.exception.ts</title>
<path fill="none" stroke="#9e9e9e" stroke-width="1.2" d="M652.87,-300C634.44,-300 613.75,-300 613.75,-300 613.75,-300 613.75,-66.43 613.75,-66.43"/>
<polygon fill="#9e9e9e" stroke="#9e9e9e" stroke-width="1.2" points="616.2,-66.43 613.75,-59.43 611.3,-66.43 616.2,-66.43"/>
</g>
<!-- src/domain/shared/&#45;&gt;src/common/exceptions/illegal&#45;argument.exception.ts -->
<g id="edge23" class="edge">
<title>src/domain/shared/&#45;&gt;src/common/exceptions/illegal&#45;argument.exception.ts</title>
<path fill="none" stroke="#9e9e9e" stroke-width="1.2" d="M447.54,-128C468.16,-128 492.83,-128 492.83,-128 492.83,-128 492.83,-66.45 492.83,-66.45"/>
<polygon fill="#9e9e9e" stroke="#9e9e9e" stroke-width="1.2" points="495.28,-66.45 492.83,-59.45 490.38,-66.45 495.28,-66.45"/>
</g>
<!-- src/adapter/persistence/&#45;&gt;src/domain/member/ -->
<g id="edge5" class="edge">
<title>src/adapter/persistence/&#45;&gt;src/domain/member/</title>
<path fill="none" stroke="#9e9e9e" stroke-width="1.2" d="M190.22,-293.33C190.22,-269.08 190.22,-219 190.22,-219 190.22,-219 383.89,-219 383.89,-219"/>
<polygon fill="#9e9e9e" stroke="#9e9e9e" stroke-width="1.2" points="383.89,-221.45 390.89,-219 383.89,-216.55 383.89,-221.45"/>
</g>
<!-- src/adapter/persistence/&#45;&gt;src/application/member/ -->
<g id="edge4" class="edge">
<title>src/adapter/persistence/&#45;&gt;src/application/member/</title>
<path fill="none" stroke="#9e9e9e" stroke-width="1.2" d="M161.93,-293.16C161.93,-281.09 161.93,-265 161.93,-265 161.93,-265 667.06,-265 667.06,-265 667.06,-265 667.06,-284.35 667.06,-284.35"/>
<polygon fill="#9e9e9e" stroke="#9e9e9e" stroke-width="1.2" points="664.61,-284.35 667.06,-291.35 669.51,-284.35 664.61,-284.35"/>
</g>
<!-- src/adapter/persistence/&#45;&gt;src/domain/shared/ -->
<g id="edge6" class="edge">
<title>src/adapter/persistence/&#45;&gt;src/domain/shared/</title>
<path fill="none" stroke="#9e9e9e" stroke-width="1.2" d="M176.07,-293.11C176.07,-252.59 176.07,-132 176.07,-132 176.07,-132 383.68,-132 383.68,-132"/>
<polygon fill="#9e9e9e" stroke="#9e9e9e" stroke-width="1.2" points="383.68,-134.45 390.68,-132 383.68,-129.55 383.68,-134.45"/>
</g>
<!-- src/adapter/security/&#45;&gt;src/domain/member/ -->
<g id="edge7" class="edge">
<title>src/adapter/security/&#45;&gt;src/domain/member/</title>
<path fill="none" stroke="#9e9e9e" stroke-width="1.2" d="M522.88,-293.1C522.88,-271.56 522.88,-231 522.88,-231 522.88,-231 458.19,-231 458.19,-231"/>
<polygon fill="#9e9e9e" stroke="#9e9e9e" stroke-width="1.2" points="458.19,-228.55 451.19,-231 458.19,-233.45 458.19,-228.55"/>
</g>
<!-- src/adapter/webapi/&#45;&gt;src/domain/member/ -->
<g id="edge8" class="edge">
<title>src/adapter/webapi/&#45;&gt;src/domain/member/</title>
<path fill="none" stroke="#9e9e9e" stroke-width="1.2" d="M287.5,-293.12C287.5,-270.63 287.5,-227 287.5,-227 287.5,-227 383.87,-227 383.87,-227"/>
<polygon fill="#9e9e9e" stroke="#9e9e9e" stroke-width="1.2" points="383.87,-229.45 390.87,-227 383.87,-224.55 383.87,-229.45"/>
</g>
<!-- src/adapter/webapi/&#45;&gt;src/application/member/ -->
<g id="edge9" class="edge">
<title>src/adapter/webapi/&#45;&gt;src/application/member/</title>
<path fill="none" stroke="#9e9e9e" stroke-width="1.2" d="M260.5,-293.1C260.5,-284.19 260.5,-274 260.5,-274 260.5,-274 660.09,-274 660.09,-274 660.09,-274 660.09,-284.29 660.09,-284.29"/>
<polygon fill="#9e9e9e" stroke="#9e9e9e" stroke-width="1.2" points="657.64,-284.29 660.09,-291.29 662.54,-284.29 657.64,-284.29"/>
</g>
<!-- src/app.module.ts -->
<g id="node9" class="node">
<title>src/app.module.ts</title>
<g id="a_node9"><a xlink:href="src/app.module.ts" xlink:title="app.module.ts">
<path fill="#ddfeff" stroke="#bbbbbb" stroke-width="1.2" d="M642.35,-402C642.35,-402 575.65,-402 575.65,-402 571.45,-402 567.25,-397.8 567.25,-393.6 567.25,-393.6 567.25,-385.2 567.25,-385.2 567.25,-381 571.45,-376.8 575.65,-376.8 575.65,-376.8 642.35,-376.8 642.35,-376.8 646.55,-376.8 650.75,-381 650.75,-385.2 650.75,-385.2 650.75,-393.6 650.75,-393.6 650.75,-397.8 646.55,-402 642.35,-402"/>
<text xml:space="preserve" text-anchor="start" x="575.25" y="-384.95" font-family="Helvetica,sans-Serif" font-size="11.00">app.module.ts</text>
</a>
</g>
</g>
<!-- src/app.module.ts&#45;&gt;src/adapter/api&#45;controller&#45;advice.ts -->
<g id="edge10" class="edge">
<title>src/app.module.ts&#45;&gt;src/adapter/api&#45;controller&#45;advice.ts</title>
<path fill="none" stroke="#9e9e9e" stroke-width="1.2" d="M566.94,-389C507.48,-389 406,-389 406,-389 406,-389 406,-327.95 406,-327.95"/>
<polygon fill="#9e9e9e" stroke="#9e9e9e" stroke-width="1.2" points="408.45,-327.95 406,-320.95 403.55,-327.95 408.45,-327.95"/>
</g>
<!-- src/app.module.ts&#45;&gt;src/domain/member/ -->
<g id="edge12" class="edge">
<title>src/app.module.ts&#45;&gt;src/domain/member/</title>
<path fill="none" stroke="#9e9e9e" stroke-width="1.2" d="M579.25,-376.38C579.25,-337.85 579.25,-227 579.25,-227 579.25,-227 458.11,-227 458.11,-227"/>
<polygon fill="#9e9e9e" stroke="#9e9e9e" stroke-width="1.2" points="458.11,-224.55 451.11,-227 458.11,-229.45 458.11,-224.55"/>
</g>
<!-- src/app.module.ts&#45;&gt;src/application/member/ -->
<g id="edge11" class="edge">
<title>src/app.module.ts&#45;&gt;src/application/member/</title>
<path fill="none" stroke="#9e9e9e" stroke-width="1.2" d="M643.5,-376.44C643.5,-354.64 643.5,-313 643.5,-313 643.5,-313 644.41,-313 644.41,-313"/>
<polygon fill="#9e9e9e" stroke="#9e9e9e" stroke-width="1.2" points="643.76,-315.45 650.76,-313 643.76,-310.55 643.76,-315.45"/>
</g>
<!-- src/common/util/assert.ts&#45;&gt;src/common/exceptions/illegal&#45;argument.exception.ts -->
<g id="edge19" class="edge">
<title>src/common/util/assert.ts&#45;&gt;src/common/exceptions/illegal&#45;argument.exception.ts</title>
<path fill="none" stroke="#9e9e9e" stroke-width="1.2" d="M563,-114.8C563,-114.8 563,-66.6 563,-66.6"/>
<polygon fill="#9e9e9e" stroke="#9e9e9e" stroke-width="1.2" points="565.45,-66.6 563,-59.6 560.55,-66.6 565.45,-66.6"/>
</g>
<!-- src/main.ts -->
<g id="node12" class="node">
<title>src/main.ts</title>
<g id="a_node12"><a xlink:href="src/main.ts" xlink:title="main.ts">
<path fill="#ddfeff" stroke="#bbbbbb" stroke-width="1.2" d="M627.6,-485.2C627.6,-485.2 590.4,-485.2 590.4,-485.2 586.2,-485.2 582,-481 582,-476.8 582,-476.8 582,-468.4 582,-468.4 582,-464.2 586.2,-460 590.4,-460 590.4,-460 627.6,-460 627.6,-460 631.8,-460 636,-464.2 636,-468.4 636,-468.4 636,-476.8 636,-476.8 636,-481 631.8,-485.2 627.6,-485.2"/>
<text xml:space="preserve" text-anchor="start" x="591.75" y="-468.15" font-family="Helvetica,sans-Serif" font-size="11.00">main.ts</text>
</a>
</g>
</g>
<!-- src/main.ts&#45;&gt;src/app.module.ts -->
<g id="edge24" class="edge">
<title>src/main.ts&#45;&gt;src/app.module.ts</title>
<path fill="none" stroke="#9e9e9e" stroke-width="1.2" d="M609,-459.6C609,-459.6 609,-411.4 609,-411.4"/>
<polygon fill="#9e9e9e" stroke="#9e9e9e" stroke-width="1.2" points="611.45,-411.4 609,-404.4 606.55,-411.4 611.45,-411.4"/>
</g>
</g>
</svg>
